Coordinates
version=1
nRows=9
nColumns=24
inDegrees=yes

Units are S.I. units (second, meters, Newtons, ...)
Angles are in degrees.

endheader
time	pelvis_tilt	pelvis_list	pelvis_rotation	pelvis_tx	pelvis_ty	pelvis_tz	hip_flexion_r	hip_adduction_r	hip_rotation_r	knee_angle_r	ankle_angle_r	subtalar_angle_r	mtp_angle_r	hip_flexion_l	hip_adduction_l	hip_rotation_l	knee_angle_l	ankle_angle_l	subtalar_angle_l	mtp_angle_l	lumbar_extension	lumbar_bending	lumbar_rotation
      0.70400000	      2.01017761	     -4.24437766	     -4.57947875	     -0.49384161	      1.01749900	      0.34060203	      9.16554604	      6.67131403	     -3.09792488	    -16.24145346	     -0.09859524	     -9.41137758	      1.52106927	     18.57329591	     -9.99276274	     -8.43308010	    -75.98018439	      3.11796064	    -12.79760746	     -5.33559312	    -13.11688831	      6.06868420	      7.96885472
      0.70816667	      2.13171449	     -4.02459301	     -4.81659818	     -0.48847470	      1.01886005	      0.34132982	      8.54049478	      6.48441110	     -2.74710648	    -15.91800861	     -0.01046099	     -9.41119158	      1.52984808	     18.97302706	     -9.81564707	     -8.65878748	    -75.67032294	      3.34062532	    -12.74327717	     -5.49965574	    -13.23623025	      5.73868275	      8.30645892
      0.71233333	      2.14684294	     -3.85496220	     -4.90988242	     -0.48311276	      1.01994930	      0.34167677	      8.02936188	      6.31798836	     -2.58409006	    -15.57927302	     -0.01854132	     -9.45366804	      1.52962057	     19.54431277	     -9.62614933	     -8.70687844	    -75.36056168	      3.61542398	    -12.77208892	     -5.54870319	    -13.23168072	      5.52109437	      8.38336864
      0.71650000	      2.18114382	     -3.65143111	     -5.04655394	     -0.47774147	      1.02107982	      0.34211626	      7.50160426	      6.11996128	     -2.36940136	    -15.24439915	     -0.01533363	     -9.48627026	      1.52882088	     20.04707394	     -9.41388869	     -8.82307867	    -74.93580662	      3.83618649	    -12.80269502	     -5.61258073	    -13.24589614	      5.24934324	      8.50670972
      0.72066667	      2.36660616	     -3.45073760	     -5.28881426	     -0.47234742	      1.02246043	      0.34286079	      6.79030569	      5.93820617	     -2.00459748	    -14.87687493	      0.04110236	     -9.53300717	      1.52467937	     20.30247515	     -9.26405391	     -9.10588981	    -74.38657771	      3.99543504	    -12.87779545	     -5.80329587	    -13.43419078	      4.92804475	      8.81347995
      0.72483333	      2.35308757	     -3.28106995	     -5.37284495	     -0.46695393	      1.02340979	      0.34316576	      6.30750451	      5.76419927	     -1.85597692	    -14.52632032	      0.01911654	     -9.58835282	      1.52020378	     20.83922813	     -9.07050003	     -9.17548479	    -73.84622078	      4.19292247	    -12.92706483	     -5.85288848	    -13.38602280	      4.71884216	      8.87074253
      0.72900000	      2.48077841	     -3.06798175	     -5.57536928	     -0.46153732	      1.02463096	      0.34378131	      5.66542679	      5.55424277	     -1.55471026	    -14.16318365	      0.06223829	     -9.64989736	      1.50703611	     21.12923596	     -8.88379675	     -9.43040316	    -73.15032211	      4.25439378	    -13.08106967	     -6.00137775	    -13.49554952	      4.40271302	      9.05670757
      0.73316667	      2.56551304	     -2.88820817	     -5.72094666	     -0.45611677	      1.02570595	      0.34425930	      5.06590146	      5.36952574	     -1.32260920	    -13.78939018	      0.04736004	     -9.73145291	      1.48772313	     21.46960361	     -8.70921261	     -9.61354299	    -72.42207809	      4.38870294	    -13.18609127	     -6.14660151	    -13.55805660	      4.14129861	      9.20905311
      0.73733333	      2.62621672	     -2.72062112	     -5.84671440	     -0.45071600	      1.02667552	      0.34469571	      4.49484594	      5.19523138	     -1.11576943	    -13.41740818	      0.03925159	     -9.80337569	      1.46594672	     21.82842652	     -8.54126480	     -9.77886114	    -71.64346405	      4.48767687	    -13.32935320	     -6.27179792	    -13.59868776	      3.88365869	      9.31929605
